# AST/ASF file generated using VICON BodyLanguage
# -----------------------------------------------
:version 1.10
:name VICON
:units
  mass 1.0
  length 0.45
  angle deg
:documentation
   .ast/.asf automatically generated from VICON data using
   VICON BodyBuilder and BodyLanguage model FoxedUp or BRILLIANT.MOD
:root
   order TX TY TZ RX RY RZ
   axis XYZ
   position 0 0 0  
   orientation 0 0 0 
:bonedata
  begin
     id 1 
     name lhipjoint
     direction 0.722297 -0.617336 0.311742 
     length 2.6635 
     axis 0 0 0  XYZ
  end
  begin
     id 2 
     name lfemur
     direction 0.34202 -0.939693 0  
     length 7.39349  
     axis 0 0 20  XYZ
    dof rx ry rz
    limits (-160.0 20.0)
           (-70.0 70.0)
           (-60.0 70.0)
  end
  begin
     id 3 
     name ltibia
     direction 0.34202 -0.939693 0   
     length 7.36294   
     axis 0 0 20   XYZ
    dof rx
    limits (-10.0 170.0)
  end
  begin
     id 4 
     name lfoot
     direction 0.104879 -0.288152 0.951824   
     length 2.16981   
     axis -90 7.62852e-016 20   XYZ
    dof rx rz
    limits (-45.0 90.0)
           (-70.0 20.0)
  end
  begin
     id 5 
     name ltoes
     direction 1.53586e-011 -4.21895e-011 1   
     length 1.08218   
     axis -90 7.62852e-016 20   XYZ
    dof rx
    limits (-90.0 20.0)
  end
  begin
     id 6 
     name rhipjoint
     direction -0.75102 -0.589393 0.297631   
     length 2.78977  
     axis 0 0 0  XYZ 
  end
  begin
     id 7 
     name rfemur
     direction -0.34202 -0.939693 0   
     length 7.46076   
     axis 0 0 -20   XYZ
    dof rx ry rz
    limits (-160.0 20.0)
           (-70.0 70.0)
           (-70.0 60.0)
  end
  begin
     id 8 
     name rtibia
     direction -0.34202 -0.939693 0   
     length 7.31726   
     axis 0 0 -20   XYZ
    dof rx
    limits (-10.0 170.0)
 end
 begin
     id 9 
     name rfoot
     direction -0.107991 -0.296704 0.948844   
     length 2.09388  
     axis -90 -7.62852e-016 -20   XYZ
    dof rx rz
    limits (-45.0 90.0)
           (-20.0 70.0)
  end
  begin
     id 10 
     name rtoes
     direction -1.53559e-011 -4.21911e-011 1   
     length 1.04433   
     axis -90 -7.62852e-016 -20   XYZ
    dof rx
    limits (-90.0 20.0)
  end
  begin
     id 11 
     name lowerback
     direction 0.0165164 0.98272 0.184358   
     length 1.71896   
     axis 0 0 0   XYZ
    dof rx ry rz
    limits (-20.0 45.0)
           (-30.0 30.0)
           (-30.0 30.0)
  end
  begin
     id 12 
     name upperback
     direction -0.00887249 0.992297 0.123566   
     length 1.71504   
     axis 0 0 0   XYZ
    dof rx ry rz
    limits (-20.0 45.0)
           (-30.0 30.0)
           (-30.0 30.0)
  end
  begin
     id 13 
     name thorax
     direction -0.0157026 0.998908 0.0440032   
     length 1.77022   
     axis 0 0 0   XYZ
    dof rx ry rz
    limits (-20.0 45.0)
           (-30.0 30.0)
           (-30.0 30.0)
  end
  begin
     id 14 
     name lowerneck
     direction -0.0238856 0.998137 0.0561411   
     length 1.89341   
     axis 0 0 0   XYZ
    dof rx ry rz
    limits (-20.0 45.0)
           (-30.0 30.0)
           (-30.0 30.0)
  end
  begin
     id 15 
     name upperneck
     direction 0.0276574 0.952253 -0.304056   
     length 1.86999   
     axis 0 0 0   XYZ
    dof rx ry rz
    limits (-20.0 45.0)
           (-30.0 30.0)
           (-30.0 30.0)
  end
  begin
     id 16
     name head
     direction 0.00800083 0.994258 -0.106712  
     length 1.91492  
     axis 0 0 0   XYZ
    dof rx ry rz
    limits (-20.0 45.0)
           (-30.0 30.0)
           (-30.0 30.0)
  end
  begin
     id 17 
     name lclavicle
     direction 0.97203 0.225407 0.06595  
     length 3.34889  
     axis 0 0 0   XYZ
    dof ry rz
    limits (-20.0 10.0)
           (0.0 20.0)
  end
  begin
     id 18 
     name lhumerus
     direction 1 -4.48973e-011 2.20267e-027   
     length 4.85645   
     axis 180 -30 -90   XYZ
    dof rx ry rz
    limits (-60.0 90.0)
           (-90.0 90.0)
           (-90.0 90.0)
  end
  begin
     id 19
     name lradius
     direction 1 -4.4897e-011 4.60472e-027   
     length 2.79874   
     axis 180 -30 -90   XYZ
    dof rx
    limits (-10.0 170.0)
  end
  begin
     id 20
     name lwrist
     direction 1 -4.48952e-011 1.14928e-026   
     length 1.39937   
     axis -6.29373e-015 90 90   XYZ
    dof ry
    limits (-180.0 0.0)
 end
  begin
     id 21 
     name lhand
     direction 1 -4.48967e-011 2.29886e-026   
     length 0.573398   
     axis -1.46689e-014 90 90   XYZ
    dof rx rz
    limits (-90.0 90.0)
           (-45.0 45.0)
  end
  begin
     id 22 
     name lfingers
     direction 1 -4.48955e-011 4.59726e-026   
     length 0.462289   
     axis -2.93383e-014 90 90   XYZ
    dof rx
    limits (0.0 90.0)
  end
  begin
     id 23
     name lthumb
     direction 0.707107 -6.34866e-011 0.707107   
     length 0.663757   
     axis -90 45 5.69224e-014   XYZ
    dof rx rz
    limits (-45.0 45.0)
           (-45.0 45.0)
  end
  begin
     id 24 
     name rclavicle
     direction -0.981571 0.157346 0.108443   
     length 3.35257  
     axis 0 0 0   XYZ 
    dof ry rz
    limits (-10.0 20.0)
           (-20.0 0.0)
  end
  begin
     id 25 
     name rhumerus
     direction -1 -4.48967e-011 8.58308e-029  
     length 4.67018   
     axis 180 30 90   XYZ
    dof rx ry rz
    limits (-90.0 60.0)
           (-90.0 90.0)
           (-90.0 90.0)
  end
  begin
     id 26 
     name rradius
     direction -1 -4.48958e-011 4.52548e-027   
     length 2.65534   
     axis 180 30 90   XYZ
    dof rx
    limits (-10.0 170.0)
  end
  begin
     id 27 
     name rwrist
     direction -1 -4.48977e-011 1.14952e-026   
     length 1.32767   
     axis -6.29373e-015 -90 -90   XYZ
    dof ry
    limits (-180.0 0.0)
  end
  begin
     id 28
     name rhand
     direction -1 -4.48924e-011 2.29804e-026   
     length 0.594069   
     axis -1.46689e-014 -90 -90   XYZ
    dof rx rz
    limits (-90.0 90.0)
           (-45.0 45.0)
  end
  begin
     id 29
     name rfingers
     direction -1 -4.48998e-011 4.59888e-026   
     length 0.478954   
     axis -2.93383e-014 -90 -90   XYZ
    dof rx
    limits (0.0 90.0)
  end
  begin
     id 30
     name rthumb
     direction -0.707107 -6.34933e-011 0.707107   
     length 0.687685   
     axis -90 -45 -5.69224e-014   XYZ
    dof rx rz
    limits (-45.0 45.0)
           (-45.0 45.0)
  end
:hierarchy
  begin
    root lhipjoint rhipjoint lowerback
    lhipjoint lfemur
    lfemur ltibia
    ltibia lfoot
    lfoot ltoes
    rhipjoint rfemur
    rfemur rtibia
    rtibia rfoot
    rfoot rtoes
    lowerback upperback
    upperback thorax
    thorax lowerneck lclavicle rclavicle
    lowerneck upperneck
    upperneck head
    lclavicle lhumerus
    lhumerus lradius
    lradius lwrist
    lwrist lhand lthumb
    lhand lfingers
    rclavicle rhumerus
    rhumerus rradius
    rradius rwrist
    rwrist rhand rthumb
    rhand rfingers
  end

#!OML:ASF E:\pregnant2\Project 1\Capture day 1\Session 1\pregnant2.ASF
:FULLY-SPECIFIED
:DEGREES
44
root 7.13652 16.9999 13.6507 -149.676 10.3237 178.04
lowerback -18.4199 -2.9758 -0.492503
upperback -13.4425 -1.19014 1.02671
thorax -4.14874 0.653769 1.11126
lowerneck -14.197 -6.27218 -4.08123
upperneck 40.7672 -3.93868 -0.361989
head 17.4983 -0.819719 0.29258
rclavicle 3.41661e-014 -7.15625e-015
rhumerus -101.082 25.2803 -125.157
rradius 105.302
rwrist -51.3185
rhand -31.8216 -81.1916
rfingers 7.12502
rthumb 174.924 -68.8892
lclavicle 3.41661e-014 -7.15625e-015
lhumerus -105.904 -31.2455 137.65
lradius 98.7264
lwrist 79.6852
lhand -27.3846 68.3112
lfingers 7.12502
lthumb 179.208 81.7105
rfemur -60.946 7.34327 13.8118
rtibia 38.0702
rfoot -12.7052 -17.7317
rtoes -4.52976
lfemur -40.3756 -7.88616 -25.8638
ltibia 29.488
lfoot -17.7988 11.6594
ltoes -12.2004
45
root 7.14579 17.0126 13.5668 -149.702 10.1022 178.002
lowerback -18.4142 -2.97411 -0.479378
upperback -13.4545 -1.17991 1.0145
thorax -4.16605 0.661847 1.09199
lowerneck -14.2352 -6.24077 -3.97336
upperneck 41.0244 -3.74073 -0.57878
head 17.641 -0.723547 0.21952
rclavicle 1.33683e-014 -2.5842e-014
rhumerus -101.043 25.2576 -125.129
rradius 105.323
rwrist -51.3824
rhand -31.8567 -80.4285
rfingers 7.12502
rthumb 174.89 -69.6531
lclavicle 1.33683e-014 -2.5842e-014
lhumerus -106.051 -31.3245 137.838
lradius 98.7205
lwrist 79.7473
lhand -27.3823 68.3134
lfingers 7.12502
lthumb 179.211 81.7083
rfemur -60.8953 7.973 12.9131
rtibia 36.1762
rfoot -12.73 -18.559
rtoes -4.24843
lfemur -39.7424 -7.86198 -25.9479
ltibia 28.9056
lfoot -17.8002 11.4292
ltoes -12.4105
46
root 7.1557 17.0249 13.4827 -149.741 9.87032 177.959
lowerback -18.4061 -2.96915 -0.463599
upperback -13.4624 -1.16688 0.995927
thorax -4.18012 0.670305 1.06496
lowerneck -14.2633 -6.19981 -3.839
upperneck 41.2758 -3.52605 -0.81026
head 17.7783 -0.617551 0.138133
rclavicle 8.84592e-015 -2.38542e-014
rhumerus -100.978 25.2301 -125.078
rradius 105.357
rwrist -51.4483
rhand -31.8659 -79.4582
rfingers 7.12502
rthumb 174.881 -70.6236
lclavicle 8.84592e-015 -2.38542e-014
lhumerus -106.198 -31.4142 138.022
lradius 98.724
lwrist 79.8107
lhand -27.3917 68.3239
lfingers 7.12502
lthumb 179.202 81.6978
rfemur -60.8421 8.68859 11.8891
rtibia 34.3274
rfoot -12.8263 -19.4845
rtoes -3.91188
lfemur -39.0904 -7.84716 -26.027
ltibia 28.3117
lfoot -17.7894 11.1986
ltoes -12.629
47
root 7.16617 17.0369 13.3969 -149.774 9.64022 177.917
lowerback -18.4189 -2.97816 -0.457654
upperback -13.4727 -1.16867 0.99442
thorax -4.18537 0.673679 1.05928
lowerneck -14.2759 -6.12883 -3.66112
upperneck 41.5227 -3.25243 -1.08874
head 17.9074 -0.486011 0.0385664
rclavicle -8.4235e-015 -7.15625e-015
rhumerus -100.955 25.2318 -125.065
rradius 105.38
rwrist -51.5344
rhand -31.8686 -79.1199
rfingers 7.12502
rthumb 174.878 -70.962
lclavicle -8.4235e-015 -7.15625e-015
lhumerus -106.317 -31.4686 138.189
lradius 98.7251
lwrist 79.8622
lhand -27.3929 68.3167
lfingers 7.12502
lthumb 179.2 81.705
rfemur -60.8136 9.51992 10.7075
rtibia 32.5419
rfoot -13.0382 -20.5215
rtoes -3.46224
lfemur -38.4353 -7.83022 -26.1025
ltibia 27.7108
lfoot -17.7725 10.9678
ltoes -12.8555
48
root 7.17721 17.0484 13.3093 -149.804 9.40957 177.877
lowerback -18.4524 -2.99335 -0.452491
upperback -13.4789 -1.17825 1.00008
thorax -4.17509 0.67347 1.06048
lowerneck -14.2706 -6.03337 -3.44361
upperneck 41.7527 -2.93664 -1.39985
head 18.0223 -0.335323 -0.0754962
rclavicle 1.51325e-014 2.06736e-014
rhumerus -100.952 25.2498 -125.076
rradius 105.4
rwrist -51.6673
rhand -31.911 -79.2278
rfingers 7.12502
rthumb 174.837 -70.8551
lclavicle 1.51325e-014 2.06736e-014
lhumerus -106.411 -31.5138 138.333
lradius 98.7246
lwrist 79.9049
lhand -27.3663 68.3114
lfingers 7.12502
lthumb 179.226 81.7103
rfemur -60.8242 10.4984 9.33008
rtibia 30.841
rfoot -13.4095 -21.7135
rtoes -2.93228
lfemur -37.7765 -7.81293 -26.1723
ltibia 27.1112
lfoot -17.7548 10.7373
ltoes -13.0838
49
root 7.1889 17.059 13.2203 -149.832 9.17954 177.838
lowerback -18.5022 -3.01291 -0.449725
upperback -13.4843 -1.19223 1.01231
thorax -4.15534 0.671881 1.06929
lowerneck -14.2429 -5.91854 -3.19756
upperneck 41.9681 -2.58571 -1.73365
head 18.1245 -0.16808 -0.198724
rclavicle -1.14053e-014 -2.14687e-014
rhumerus -100.973 25.2757 -125.11
rradius 105.417
rwrist -51.8384
rhand -32.0144 -79.6997
rfingers 7.12502
rthumb 174.737 -70.3857
lclavicle -1.14053e-014 -2.14687e-014
lhumerus -106.481 -31.548 138.459
lradius 98.7223
lwrist 79.9379
lhand -27.3162 68.3219
lfingers 7.12502
lthumb 179.275 81.6996
rfemur -60.9021 11.659 7.70858
rtibia 29.2466
rfoot -13.9762 -23.1124
rtoes -2.30881
lfemur -37.121 -7.79237 -26.2374
ltibia 26.5236
lfoot -17.7408 10.5066
ltoes -13.3237
50
root 7.20128 17.0683 13.1298 -149.854 8.95244 177.802
lowerback -18.57 -3.037 -0.449834
upperback -13.488 -1.21091 1.03253
thorax -4.1242 0.668757 1.08742
lowerneck -14.1949 -5.78745 -2.92874
upperneck 42.1665 -2.20503 -2.08681
head 18.2141 0.0127913 -0.329827
rclavicle 1.12313e-014 2.10712e-014
rhumerus -101.002 25.3149 -125.145
rradius 105.439
rwrist -52.0067
rhand -32.0271 -80.8039
rfingers 7.12502
rthumb 174.725 -69.2818
lclavicle 1.12313e-014 2.10712e-014
lhumerus -106.522 -31.5741 138.562
lradius 98.7187
lwrist 79.9641
lhand -27.2386 68.3544
lfingers 7.12502
lthumb 179.349 81.6668
rfemur -61.0817 13.0349 5.79492
rtibia 27.782
rfoot -14.7831 -24.7818
rtoes -1.56247
lfemur -36.4786 -7.76918 -26.2953
ltibia 25.9639
lfoot -17.7399 10.2799
ltoes -13.568
